<svg width="18" height="18" viewBox="0 0 18 18" fill="none" xmlns="http://www.w3.org/2000/svg">
<path fill-rule="evenodd" clip-rule="evenodd" d="M1.125 16.1053H16.875C17.1734 16.1053 17.4595 16.2051 17.6705 16.3827C17.8815 16.5604 18 16.8014 18 17.0526C18 17.3039 17.8815 17.5449 17.6705 17.7225C17.4595 17.9002 17.1734 18 16.875 18H1.125C0.826631 18 0.540483 17.9002 0.329505 17.7225C0.118527 17.5449 0 17.3039 0 17.0526C0 16.8014 0.118527 16.5604 0.329505 16.3827C0.540483 16.2051 0.826631 16.1053 1.125 16.1053ZM10.125 10.5868L13.7734 7.51547L15.3641 8.85505L9 14.2143L2.63587 8.85505L4.22662 7.51547L7.875 10.5868V0H10.125V10.5868Z" fill="currentColor"/>
</svg>
