<svg width="44" height="52" viewBox="0 0 44 52" fill="none" xmlns="http://www.w3.org/2000/svg">
<path d="M23.8082 8.26422L23.7969 15.945L23.7855 23.6257L23.2552 21.8428L23.2541 21.8394L22.5688 38.9388C23.2427 41.2061 23.6037 42.4165 23.6077 42.4213C23.6129 42.4277 23.9971 42.4553 24.4611 42.4828C25.8669 42.5659 27.6093 42.7439 28.9309 42.9397C29.237 42.9849 29.5003 43.0082 29.5163 42.9911C29.532 42.9743 29.5406 35.1538 29.5354 25.6124L29.5257 8.26422H23.8082Z" fill="#B1060F" stroke="black" stroke-width="0.611984"/>
<path d="M13.467 8.24121V25.607C13.467 35.1582 13.4749 42.9821 13.4845 42.9935C13.4941 43.005 13.9905 42.9491 14.5877 42.8694C15.1848 42.7897 16.0103 42.6906 16.4218 42.6492C17.053 42.5857 18.9375 42.4413 19.1556 42.4397C19.2191 42.4393 19.2232 42.0493 19.2324 35.0845L19.2421 27.7295L19.6981 29.2666L19.8594 29.8098L20.5445 12.7146L20.3091 11.9217C19.9574 10.7367 19.6055 9.55175 19.2532 8.36695L19.2154 8.24121H13.467Z" fill="#B1060F" stroke="black" stroke-width="0.611984"/>
<path d="M13.467 8.24121V17.9891L19.2304 36.2046C19.2311 35.7871 19.2317 35.5617 19.2324 35.0845L19.2421 27.7295L19.6981 29.2666C22.2362 37.8238 23.5998 42.4117 23.6078 42.4213C23.6131 42.4277 23.9972 42.4553 24.4612 42.4828C25.8671 42.5659 27.6094 42.7439 28.9311 42.9397C29.2371 42.9849 29.5004 43.0082 29.5164 42.9911C29.5271 42.9795 29.5344 39.1449 29.5362 33.7354L23.7998 14.0855L23.7971 15.945L23.7856 23.6258L23.2553 21.8428C22.737 20.1006 22.391 18.9355 20.3091 11.9217C19.9574 10.7367 19.6055 9.55175 19.2532 8.36695L19.2154 8.24121H13.467Z" fill="url(#paint0_radial_13_340)"/>
<path d="M13.467 8.24121L19.242 27.7383V27.7295L19.6979 29.2667C22.2361 37.8238 23.5996 42.4117 23.6077 42.4213C23.6129 42.4277 23.997 42.4554 24.461 42.4828C25.8669 42.5659 27.6092 42.7439 28.9309 42.9397C29.2354 42.9847 29.4972 43.0078 29.5157 42.9914L23.7853 23.6224V23.6258L23.2549 21.8428C22.7367 20.1006 22.3907 18.9355 20.3087 11.9217C19.7488 10.0356 19.2737 8.43623 19.2529 8.36695L19.2151 8.24121H13.467Z" fill="#E50914"/>
<path d="M23.8082 8.26422L23.7969 15.945L23.7855 23.6257L23.2552 21.8428L23.2541 21.8394L22.5688 38.9388C23.2427 41.2061 23.6037 42.4165 23.6077 42.4213C23.6129 42.4277 23.9971 42.4553 24.4611 42.4828C25.8669 42.5659 27.6093 42.7439 28.9309 42.9397C29.237 42.9849 29.5003 43.0082 29.5163 42.9911C29.532 42.9743 29.5406 35.1538 29.5354 25.6124L29.5257 8.26422H23.8082Z" fill="#B1060F" stroke="black" stroke-width="0.611984"/>
<path d="M13.467 8.24121V25.607C13.467 35.1582 13.4749 42.9821 13.4845 42.9935C13.4941 43.005 13.9905 42.9491 14.5877 42.8694C15.1848 42.7897 16.0103 42.6906 16.4218 42.6492C17.053 42.5857 18.9375 42.4413 19.1556 42.4397C19.2191 42.4393 19.2232 42.0493 19.2324 35.0845L19.2421 27.7295L19.6981 29.2666L19.8594 29.8098L20.5445 12.7146L20.3091 11.9217C19.9574 10.7367 19.6055 9.55175 19.2532 8.36695L19.2154 8.24121H13.467Z" fill="#B1060F" stroke="black" stroke-width="0.611984"/>
<path d="M13.467 8.24121V17.9891L19.2304 36.2046C19.2311 35.7871 19.2317 35.5617 19.2324 35.0845L19.2421 27.7295L19.6981 29.2666C22.2362 37.8238 23.5998 42.4117 23.6078 42.4213C23.6131 42.4277 23.9972 42.4553 24.4612 42.4828C25.8671 42.5659 27.6094 42.7439 28.9311 42.9397C29.2371 42.9849 29.5004 43.0082 29.5164 42.9911C29.5271 42.9795 29.5344 39.1449 29.5362 33.7354L23.7998 14.0855L23.7971 15.945L23.7856 23.6258L23.2553 21.8428C22.737 20.1006 22.391 18.9355 20.3091 11.9217C19.9574 10.7367 19.6055 9.55175 19.2532 8.36695L19.2154 8.24121H13.467Z" fill="url(#paint1_radial_13_340)"/>
<path d="M13.467 8.24121L19.242 27.7383V27.7295L19.6979 29.2667C22.2361 37.8238 23.5996 42.4117 23.6077 42.4213C23.6129 42.4277 23.997 42.4554 24.461 42.4828C25.8669 42.5659 27.6092 42.7439 28.9309 42.9397C29.2354 42.9847 29.4972 43.0078 29.5157 42.9914L23.7853 23.6224V23.6258L23.2549 21.8428C22.7367 20.1006 22.3907 18.9355 20.3087 11.9217C19.7488 10.0356 19.2737 8.43623 19.2529 8.36695L19.2151 8.24121H13.467Z" fill="#E50914"/>
<defs>
<radialGradient id="paint0_radial_13_340" cx="0" cy="0" r="1" gradientUnits="userSpaceOnUse" gradientTransform="translate(21.2349 14.0462) scale(11.3188 13.4861)">
<stop/>
<stop offset="1" stop-opacity="0"/>
</radialGradient>
<radialGradient id="paint1_radial_13_340" cx="0" cy="0" r="1" gradientUnits="userSpaceOnUse" gradientTransform="translate(21.2349 14.0462) scale(11.3188 13.4861)">
<stop/>
<stop offset="1" stop-opacity="0"/>
</radialGradient>
</defs>
</svg>
