<svg width="20" height="20" viewBox="0 0 20 20" fill="none" xmlns="http://www.w3.org/2000/svg">
<path d="M18.3559 9.34386C18.7783 9.69961 19.4092 9.64554 19.7649 9.22309C20.1207 8.80064 20.0666 8.16979 19.6441 7.81404L19 8.57895L18.3559 9.34386ZM10 1L10.6441 0.235089C10.2719 -0.0783631 9.72809 -0.0783631 9.35586 0.235089L10 1ZM0.355864 7.81404C-0.0665847 8.16979 -0.120657 8.80064 0.235089 9.22309C0.590836 9.64554 1.22169 9.69961 1.64414 9.34386L1 8.57895L0.355864 7.81404ZM3.70001 19H2.70001V20H3.70001V19ZM4.70001 6.6842C4.70001 6.13192 4.2523 5.6842 3.70001 5.6842C3.14773 5.6842 2.70001 6.13192 2.70001 6.6842H3.70001H4.70001ZM16.3 19V20H17.3V19H16.3ZM17.3 6.6842C17.3 6.13192 16.8523 5.6842 16.3 5.6842C15.7477 5.6842 15.3 6.13192 15.3 6.6842H16.3H17.3ZM19 8.57895L19.6441 7.81404L10.6441 0.235089L10 1L9.35586 1.76491L18.3559 9.34386L19 8.57895ZM1 8.57895L1.64414 9.34386L10.6441 1.76491L10 1L9.35586 0.235089L0.355864 7.81404L1 8.57895ZM3.70001 19H4.70001V6.6842H3.70001H2.70001V19H3.70001ZM16.3 19H17.3V6.6842H16.3H15.3V19H16.3ZM3.70001 19V20H16.3V19V18H3.70001V19Z" fill="currentColor"/>
</svg>
