<svg width="28" height="28" viewBox="0 0 28 28" fill="none" xmlns="http://www.w3.org/2000/svg">
<path d="M14 2.33331C7.56704 2.33331 2.33337 7.56698 2.33337 14C2.33337 20.433 7.56704 25.6666 14 25.6666C20.433 25.6666 25.6667 20.433 25.6667 14C25.6667 7.56698 20.433 2.33331 14 2.33331ZM14 23.3333C8.85387 23.3333 4.66671 19.1461 4.66671 14C4.66671 8.85381 8.85387 4.66665 14 4.66665C19.1462 4.66665 23.3334 8.85381 23.3334 14C23.3334 19.1461 19.1462 23.3333 14 23.3333Z" fill="currentColor"/>
<path d="M10.5 19.8334L19.8333 14L10.5 8.16669V19.8334Z" fill="currentColor"/>
</svg>
